<svg width="347" height="100" viewBox="0 0 347 100" fill="none" xmlns="http://www.w3.org/2000/svg">
<path d="M330.094 87.0752C336.887 87.0752 341.698 85.8488 345.283 83.2072V71.2261C341.604 73.7733 337.17 75.3771 330.943 75.3771C320.472 75.3771 316.132 67.2639 316.132 54.4337C316.132 40.9431 321.415 34.0563 331.038 34.0563C336.698 34.0563 342.264 36.0374 345.189 37.9242V25.4714C342.075 23.7733 336.698 22.5469 329.34 22.5469C310.566 22.5469 300.849 36.0374 300.849 54.9054C300.943 75.5657 310.472 87.0752 330.094 87.0752ZM238.302 81.6035V69.6223C233.774 72.7356 226.038 75.4714 218.962 75.4714C208.208 75.4714 204.151 70.3771 203.491 59.9997H238.962V52.2639C238.962 30.6601 229.434 22.5469 214.811 22.5469C196.887 22.5469 188.396 36.2261 188.396 54.9997C188.396 76.6035 199.057 87.0752 217.736 87.0752C227.075 87.0752 233.962 84.528 238.302 81.6035ZM103.679 23.679V48.2073H84.0566V23.679H69.3396V85.8488H84.0566V59.9054H103.679V85.8488H118.396V23.679H103.679ZM184.717 74.1506H178.208V23.679H135.377V28.962C135.377 44.1506 134.434 63.7733 129.245 74.1506H124.528V99.9997H138.113V85.8488H171.038V99.9997H184.623V74.1506H184.717ZM285.189 85.8488H301.887L278.302 52.3582L299.057 23.679H284.245L263.491 52.3582V23.679H248.774V85.8488H263.491V55.2827L285.189 85.8488ZM214.434 34.0563C221.698 34.0563 223.962 40.094 223.962 47.9242V49.1506H203.491C203.868 39.245 207.453 34.0563 214.434 34.0563ZM163.491 74.1506H142.736C146.792 64.811 147.925 47.8299 147.925 37.0752V35.1884H163.491V74.1506Z" fill="black"></path>
<path d="M57.0755 85.8491H42.0755V11.6038H35.3774C23.1132 11.6038 16.6981 17.7359 16.6981 26.8868C16.6981 37.2642 21.1321 42.0755 30.283 48.2075L37.8302 53.3019L16.1321 85.8491H0L19.5283 56.7925C8.30189 48.7736 1.98113 40.9434 1.98113 27.7358C1.98113 11.2264 13.4906 0 35.283 0H56.9811V85.8491H57.0755Z" fill="#FC3F1D"></path>
</svg>