<svg width="40" height="29" viewBox="0 0 40 29" fill="none" xmlns="http://www.w3.org/2000/svg">
<path d="M39.52 -4.76837e-06L31.6 16.8L30.56 10.8C32.32 10.8 33.8667 11.2 35.2 12C36.5867 12.8 37.68 13.8933 38.48 15.28C39.28 16.6133 39.68 18.1067 39.68 19.76C39.68 21.4133 39.28 22.9067 38.48 24.24C37.68 25.5733 36.5867 26.64 35.2 27.44C33.8133 28.24 32.2667 28.64 30.56 28.64C28.9067 28.64 27.3867 28.24 26 27.44C24.6133 26.64 23.52 25.5467 22.72 24.16C21.92 22.7733 21.52 21.2267 21.52 19.52C21.52 17.92 21.8933 16.24 22.64 14.48C23.44 12.6667 24.7733 10.3733 26.64 7.6L31.68 -4.76837e-06H39.52ZM18.24 -4.76837e-06L10.32 16.8L9.28 10.8C11.04 10.8 12.5867 11.2 13.92 12C15.3067 12.8 16.4 13.8933 17.2 15.28C18 16.6133 18.4 18.1067 18.4 19.76C18.4 21.4133 18 22.9067 17.2 24.24C16.4 25.5733 15.3067 26.64 13.92 27.44C12.5333 28.24 10.9867 28.64 9.28 28.64C7.62667 28.64 6.10667 28.24 4.72 27.44C3.33333 26.64 2.24 25.5467 1.44 24.16C0.64 22.7733 0.24 21.2267 0.24 19.52C0.24 17.92 0.613333 16.24 1.36 14.48C2.16 12.6667 3.49333 10.3733 5.36 7.6L10.4 -4.76837e-06H18.24Z" fill="black"></path>
</svg>