<svg width="100" height="100" viewBox="0 0 100 100" fill="none" xmlns="http://www.w3.org/2000/svg">
<path d="M77.9369 65.4473C77.3509 64.3145 76.7962 63.1583 76.179 62.0411C75.5619 60.9239 74.9369 59.7989 74.2181 58.7286C73.7181 57.9473 73.2103 57.1661 72.6556 56.3848C70.8649 53.632 68.9245 50.9796 66.8431 48.4395C66.3665 47.8848 65.89 47.3223 65.3978 46.7833L63.8744 45.2208C63.2259 44.5489 62.5072 43.9395 61.8431 43.2911C61.515 42.9551 61.1556 42.6583 60.8275 42.3223C60.4994 41.9864 60.1947 41.6348 59.8822 41.2833C59.5697 40.9317 59.7415 40.6661 60.3275 40.7442C60.7099 40.8005 61.0847 40.9001 61.4447 41.0411C61.9257 41.2104 62.367 41.4763 62.7415 41.8223C65.6508 44.4458 68.2699 47.374 70.554 50.5567C71.2181 51.5254 71.929 52.4786 72.6556 53.4395C73.3822 54.4004 74.0697 55.3848 74.7181 56.3848C76.1478 58.5957 77.5072 60.8458 78.7259 63.1739C79.5072 64.5879 80.1869 66.0645 80.8978 67.5176C81.4056 68.627 81.8744 69.7676 82.3587 70.8926L83.5931 74.2676C83.8978 75.1661 84.2259 76.0411 84.5619 76.9239C84.8978 77.8067 85.1478 78.7051 85.4369 79.6036C85.5751 79.9922 85.6898 80.3887 85.7806 80.7911C86.1244 82.3536 86.0619 82.8301 85.6009 83.2364C85.5047 83.3362 85.4002 83.4277 85.2884 83.5098C84.929 83.7129 84.4447 83.1661 84.1244 82.1114C83.179 78.9864 82.2025 75.7364 80.9447 72.5254C80.5228 71.3223 79.9759 70.1817 79.4915 68.9708C79.0072 67.7598 78.4134 66.627 77.8665 65.4708L77.9369 65.4473Z" fill="#231F20"></path>
<path d="M35.6243 93.0566C32.5026 92.5487 29.4383 91.7348 26.4759 90.6269C24.9284 90.0522 23.4811 89.2375 22.1868 88.2128C21.4874 87.6394 20.9153 86.9262 20.5072 86.1191C20.4603 86.0097 20.4056 85.9081 20.3665 85.7987L20.2337 85.3847C20.0462 85.0644 20.2337 84.6816 20.2337 84.4784L20.4993 83.2909C21.0974 81.0707 21.86 78.898 22.7806 76.7909C26.0513 69.481 30.1008 62.5451 34.8587 56.1034C35.89 54.6659 37.0072 53.2753 38.0853 51.8691L39.7884 49.8222L40.6243 48.8066L41.5228 47.83C44.5384 44.4706 47.8118 41.1972 51.7493 38.8769C52.9603 38.1347 52.9603 38.5175 52.2025 39.5019C51.6992 40.1586 51.1427 40.7726 50.5384 41.3378C49.8197 42.0487 48.9759 42.9003 48.0306 43.6816C41.304 49.6894 35.7415 56.9628 30.8431 64.7753C30.4759 65.3612 30.0619 65.9394 29.7494 66.5409L28.7181 68.3534C28.0072 69.5566 27.3822 70.8144 26.7415 72.0722C26.1009 73.33 25.5384 74.6191 24.929 75.8925C24.3197 77.1659 23.7962 78.4784 23.3665 79.7987C23.1009 80.5253 22.8118 81.2362 22.5853 81.9706C22.3389 82.6844 22.1354 83.4122 21.9759 84.1503C21.8997 84.4379 21.8422 84.7302 21.804 85.0253C21.8397 85.1456 21.8841 85.2631 21.9368 85.3769C22.0012 85.5247 22.0797 85.666 22.1712 85.7987C22.557 86.3739 23.0441 86.8742 23.6087 87.2753C24.8312 88.127 26.1671 88.8028 27.5775 89.2831C29.0165 89.8026 30.4853 90.2356 31.9759 90.58C35.6875 91.4125 39.4514 91.992 43.2415 92.3144C48.9942 92.8345 54.7741 92.9884 60.5462 92.7753C64.9463 92.6011 69.3291 92.1234 73.6634 91.3456C74.6087 91.1659 75.5228 90.955 76.4603 90.7284C78.1947 90.3144 79.2806 89.9472 80.0384 89.7441C80.5792 89.587 81.1338 89.4824 81.6947 89.4316C81.9056 89.4316 82.1322 89.3378 82.2884 89.3378C82.4447 89.3378 82.4603 89.4081 82.4134 89.5644C82.3137 89.8212 82.1591 90.0532 81.9603 90.2441C81.1555 90.9884 80.1946 91.5436 79.1478 91.869C75.2045 93.0956 71.1337 93.8662 67.015 94.1659C62.8307 94.5432 58.6299 94.7048 54.429 94.6503C48.1271 94.6205 41.8371 94.098 35.6165 93.0878L35.6243 93.0566Z" fill="#231F20"></path>
<path d="M56.1401 60.1572C58.1792 59.915 60.2183 59.6572 62.1948 59.2978C63.155 59.128 64.1025 58.8931 65.0308 58.5947C65.2495 58.5244 65.4604 58.4463 65.6479 58.3682L65.8433 58.2822H65.8979C65.9761 58.2822 66.062 58.165 66.0308 58.0635C66.0183 58.0022 65.9852 57.947 65.937 57.9072L65.8433 57.8135C65.7573 57.7432 65.6245 57.6806 65.5151 57.6103C64.9768 57.3275 64.4148 57.0922 63.8354 56.9072C62.6167 56.5088 61.2964 56.2041 59.9761 55.915C57.5464 55.4072 55.0542 54.9619 52.5776 54.2666C51.2664 53.8942 49.9947 53.3944 48.7808 52.7744C48.1336 52.4473 47.5234 52.0518 46.9604 51.5947C46.3005 51.0723 45.8354 50.3431 45.6401 49.5244C45.5481 48.9564 45.6471 48.3739 45.9214 47.8682C46.1177 47.4648 46.3588 47.0848 46.6401 46.7353C47.1555 46.0962 47.7168 45.4956 48.3198 44.9385C49.4923 43.8648 50.7178 42.8505 51.9917 41.8994L53.9058 40.4932L54.2261 40.251C54.3198 40.2119 54.3198 40.126 54.312 40.04V39.5713C54.312 39.3838 54.312 39.1806 54.312 38.9931C54.312 37.4307 54.312 35.8681 54.2417 34.3056C54.1401 30.3994 53.9214 26.4463 53.7026 22.5869C53.562 20.0947 53.4292 17.5869 53.2886 15.0869C53.1479 12.5869 53.0776 10.0713 53.1714 7.55565C53.2495 5.99315 53.4761 6.20409 53.812 7.51659C53.9917 8.16502 54.1948 9.07909 54.4136 10.2197C54.6315 11.5129 54.7802 12.8169 54.8589 14.126C55.2026 19.2197 55.4761 24.3265 55.6792 29.4463C55.7808 32.001 55.8901 34.5635 55.9214 37.1494C55.9214 37.79 55.9214 38.4463 55.9214 39.0947C55.9214 39.4307 55.9214 39.7197 55.9214 40.126C55.9214 40.5322 55.9214 40.7119 55.8745 40.9932C55.6682 41.1892 55.4517 41.3744 55.2261 41.5478L52.1011 43.8916C51.0454 44.6954 50.0408 45.5643 49.0933 46.4931C48.6336 46.9405 48.2104 47.4238 47.8276 47.9385C47.5282 48.2926 47.3406 48.7276 47.2886 49.1885C47.5216 49.8266 47.9801 50.3574 48.5776 50.6807C49.2676 51.0867 50.0085 51.3993 50.7808 51.6103C52.4136 52.0947 54.1245 52.4697 55.8433 52.8213C57.9292 53.2432 60.0386 53.6494 62.1714 54.165C63.2593 54.4171 64.3293 54.7407 65.3745 55.1338C65.9412 55.3489 66.4833 55.6239 66.9917 55.9541L67.4683 56.3135C67.6192 56.4629 67.7601 56.6221 67.8901 56.79C68.0274 56.9439 68.1359 57.1212 68.2104 57.3135C68.3052 57.4936 68.3761 57.6853 68.4214 57.8838C68.4722 58.1233 68.4722 58.3708 68.4214 58.6103C68.3608 58.8497 68.2547 59.0752 68.1089 59.2744C67.7925 59.6769 67.3892 60.0027 66.9292 60.2275C66.5829 60.4001 66.2253 60.5488 65.8589 60.6728C65.523 60.79 65.187 60.8838 64.8589 60.9775C63.548 61.3077 62.2207 61.5685 60.8823 61.7588C56.6245 62.4228 52.3667 62.7353 48.187 63.376C47.0679 63.5477 45.9594 63.7825 44.8667 64.0791C44.6011 64.1572 44.3433 64.2432 44.0854 64.3369L43.9058 64.415L43.7886 64.4619C43.7176 64.495 43.6497 64.5343 43.5854 64.5791C43.4439 64.6508 43.335 64.7737 43.2808 64.9228C43.2696 64.9998 43.2757 65.0783 43.2987 65.1527C43.3216 65.227 43.3609 65.2953 43.4136 65.3525C43.4894 65.4991 43.5869 65.6334 43.7026 65.751C43.8541 65.9246 44.0158 66.0889 44.187 66.2432C44.3745 66.3838 44.5464 66.5478 44.7417 66.6807L45.3433 67.0635C46.2156 67.531 47.1347 67.9055 48.0854 68.1806C50.0428 68.71 52.0384 69.0861 54.0542 69.3057C58.9761 69.9072 63.8823 69.9541 68.8433 70.9072C69.945 71.1122 71.031 71.3942 72.0933 71.751C73.585 72.2079 74.9475 73.011 76.0698 74.0947C76.2417 74.29 76.3901 74.4697 76.5229 74.6338C76.629 74.7973 76.7205 74.9699 76.7964 75.1494C76.9339 75.4175 77.0037 75.7153 76.9995 76.0166C77.0287 76.2422 77.0287 76.4707 76.9995 76.6963C76.9136 76.9541 76.5776 76.7588 76.1089 76.2978C75.3443 75.6345 74.5085 75.058 73.6167 74.5791C72.6959 74.1103 71.7266 73.7435 70.7261 73.4853C69.6968 73.205 68.6538 72.9782 67.6011 72.8057C65.437 72.4541 63.2026 72.2275 60.9292 72.0244C58.6558 71.8213 56.3511 71.6338 54.0073 71.3603C51.598 71.1199 49.2174 70.649 46.8979 69.9541C46.4214 69.8135 45.9448 69.5947 45.4683 69.415C44.9847 69.1997 44.515 68.9544 44.062 68.6807C43.587 68.3883 43.1375 68.0564 42.7183 67.6885C42.5151 67.4775 42.3198 67.2588 42.1167 67.04C42.0698 66.9775 42.0073 66.9228 41.9526 66.8447L41.7573 66.5557L41.4058 65.9619C41.2824 65.7017 41.1957 65.4256 41.1479 65.1416C41.1183 64.8574 41.1475 64.5702 41.2339 64.2978C41.4268 63.7386 41.8079 63.2637 42.312 62.9541C42.5599 62.7847 42.8212 62.6358 43.0933 62.5088C43.268 62.4263 43.4481 62.3558 43.6323 62.2978C43.9761 62.165 44.312 62.0713 44.6479 61.9775C45.9357 61.6499 47.2395 61.3892 48.5542 61.1963C51.1089 60.7744 53.6323 60.415 56.148 60.1181L56.1401 60.1572Z" fill="#231F20"></path>
<path d="M53.4374 9.50938C53.4374 9.50938 64.5702 7.94688 67.6249 10.3375C67.8489 10.5049 68.0162 10.737 68.1042 11.0024C68.1922 11.2678 68.1967 11.5538 68.1171 11.8219C67.9062 12.6734 65.7733 17.7281 65.2108 19.0797C61.682 19.5485 58.1198 19.7184 54.5624 19.5875C54.289 19.5328 53.2968 10.3531 53.4374 9.50938Z" fill="#231F20"></path>
<path d="M68.6797 13.8125C68.5547 14.1172 66.2656 19.6875 65.7812 20.1328C65.2969 20.5781 60.2188 20.625 60.2188 20.625C60.2188 20.625 60.3516 22.6016 61.6406 22.6641C62.9297 22.7266 72.2187 23.1406 72.9609 22.0312C73.4531 21.2969 71.1875 19.1016 70.7578 18.7344C70.7578 18.7344 73.8828 16.9375 73.8828 16.1172C73.8594 14.8906 68.6797 13.8125 68.6797 13.8125Z" fill="#231F20"></path>
<path d="M21.4612 81.9297C21.4612 81.9297 11.6721 85.1328 12.0003 88.3437C12.0003 88.3437 11.6721 93.0312 31.5784 93.3984C34.9194 93.5881 38.2686 93.5881 41.6096 93.3984C41.6096 93.3984 23.4378 90.8828 21.8753 86.6016C20.3128 82.3203 21.4612 81.9297 21.4612 81.9297Z" fill="#231F20"></path>
<path d="M86.8589 19.7044C86.9595 19.6626 87.0677 19.6423 87.1766 19.6447C87.2855 19.6472 87.3927 19.6724 87.4913 19.7188C87.5898 19.7651 87.6776 19.8316 87.749 19.9139C87.8204 19.9962 87.8738 20.0925 87.9057 20.1966C88.6714 22.306 84.6479 20.5013 86.8589 19.7044Z" stroke="#231F20" stroke-width="0.8" stroke-miterlimit="10"></path>
<path d="M73.0306 35.461C73.0361 35.3525 73.064 35.2463 73.1128 35.1492C73.1616 35.0522 73.2301 34.9663 73.3139 34.8972C73.3977 34.8281 73.495 34.7773 73.5996 34.7479C73.7041 34.7185 73.8137 34.7112 73.9212 34.7266C76.1478 34.9297 72.8041 37.8047 73.0306 35.461Z" fill="#231F20"></path>
<path d="M38.2806 16.3506C38.2872 16.2435 38.3157 16.139 38.3645 16.0434C38.4132 15.9479 38.4811 15.8634 38.5639 15.7952C38.6467 15.7271 38.7427 15.6767 38.8458 15.6472C38.949 15.6178 39.0571 15.6099 39.1634 15.624C41.4056 15.8193 38.054 18.6943 38.2806 16.3506Z" fill="#231F20"></path>
<path d="M45.1647 28.7213C45.1682 28.6083 45.1963 28.4973 45.247 28.3962C45.2977 28.295 45.3697 28.2061 45.4581 28.1355C45.5465 28.065 45.6492 28.0144 45.759 27.9874C45.8689 27.9604 45.9833 27.9576 46.0943 27.9792C48.2897 28.1901 44.9459 31.0651 45.1647 28.7213Z" stroke="#231F20" stroke-width="0.8" stroke-miterlimit="10"></path>
</svg>